<svg width="156" height="45" viewBox="0 0 156 45" fill="none" xmlns="http://www.w3.org/2000/svg">
<path d="M150.222 0.901402C152.897 0.901402 155.074 3.02062 155.074 5.625V39.375C155.074 41.9794 152.897 44.0986 150.222 44.0986H5.77778C3.10267 44.0986 0.925889 41.9794 0.925889 39.375V5.625C0.925889 3.02062 3.10267 0.901402 5.77778 0.901402H150.222ZM150.222 -3.8147e-06H5.77778C2.60144 -3.8147e-06 0 2.53265 0 5.625V39.375C0 42.4673 2.60144 45 5.77778 45H150.222C153.399 45 156 42.4673 156 39.375V5.625C156 2.53265 153.399 -3.8147e-06 150.222 -3.8147e-06Z" fill="#212129"/>
<path d="M34.8141 22.257C34.7806 18.6311 37.8636 16.8671 38.0046 16.785C36.2585 14.3066 33.5522 13.968 32.6012 13.941C30.3282 13.7081 28.1234 15.2651 26.9655 15.2651C25.7846 15.2651 24.0015 13.9635 22.0798 14.0018C19.607 14.0389 17.2935 15.4328 16.0247 17.5973C13.4062 22.0106 15.3591 28.4963 17.8678 32.0636C19.1228 33.8108 20.5892 35.7615 22.5086 35.6929C24.3863 35.6175 25.0878 34.5274 27.3538 34.5274C29.599 34.5274 30.2577 35.6929 32.2152 35.649C34.2305 35.6175 35.4993 33.894 36.7103 32.1311C38.1606 30.1286 38.743 28.1565 38.7661 28.0553C38.7187 28.0395 34.8522 26.6029 34.8141 22.257Z" fill="#212129"/>
<path d="M31.1163 11.5943C32.1262 10.3646 32.8173 8.69177 32.6254 6.99414C31.1637 7.05714 29.3356 7.97852 28.2829 9.18114C27.3515 10.2409 26.5195 11.9779 26.7344 13.6114C28.3765 13.7306 30.0624 12.8048 31.1163 11.5943Z" fill="#212129"/>
<path d="M61.9905 35.4422H59.3662L57.9287 31.0446H52.9321L51.5627 35.4422H49.0078L53.9582 20.4707H57.0158L61.9905 35.4422ZM57.4954 29.1996L56.1954 25.2902C56.0579 24.8908 55.8002 23.9503 55.42 22.4698H55.3738C55.2224 23.1066 54.9786 24.0471 54.6435 25.2902L53.3666 29.1996H57.4954Z" fill="#212129"/>
<path d="M74.7215 29.9124C74.7215 31.7484 74.2119 33.1997 73.1927 34.265C72.2798 35.2134 71.1462 35.687 69.793 35.687C68.3324 35.687 67.2831 35.1763 66.6441 34.1548H66.5979V39.8417H64.1343V28.2013C64.1343 27.047 64.1031 25.8624 64.043 24.6474H66.2096L66.3471 26.3585H66.3934C67.215 25.0693 68.4618 24.4258 70.1351 24.4258C71.4431 24.4258 72.5351 24.9287 73.4087 25.9355C74.2847 26.9435 74.7215 28.2688 74.7215 29.9124ZM72.2116 30.0002C72.2116 28.9494 71.9689 28.0832 71.4813 27.4014C70.9486 26.6904 70.2333 26.3349 69.3366 26.3349C68.7287 26.3349 68.1764 26.5329 67.683 26.9233C67.1884 27.317 66.8648 27.8312 66.7135 28.4679C66.6372 28.7649 66.5991 29.0079 66.5991 29.1992V30.9992C66.5991 31.7844 66.8463 32.447 67.3409 32.9882C67.8355 33.5293 68.478 33.7993 69.2684 33.7993C70.1963 33.7993 70.9185 33.4505 71.4351 32.7553C71.9527 32.0589 72.2116 31.1409 72.2116 30.0002Z" fill="#212129"/>
<path d="M87.4742 29.9124C87.4742 31.7484 86.9646 33.1997 85.9443 34.265C85.0325 35.2134 83.8989 35.687 82.5458 35.687C81.0851 35.687 80.0359 35.1763 79.398 34.1548H79.3518V39.8417H76.8882V28.2013C76.8882 27.047 76.857 25.8624 76.7969 24.6474H78.9635L79.1011 26.3585H79.1473C79.9677 25.0693 81.2146 24.4258 82.889 24.4258C84.1959 24.4258 85.2879 24.9287 86.1638 25.9355C87.0363 26.9435 87.4742 28.2688 87.4742 29.9124ZM84.9643 30.0002C84.9643 28.9494 84.7205 28.0832 84.2329 27.4014C83.7002 26.6904 82.9872 26.3349 82.0893 26.3349C81.4803 26.3349 80.9291 26.5329 80.4346 26.9233C79.94 27.317 79.6176 27.8312 79.4662 28.4679C79.3911 28.7649 79.3518 29.0079 79.3518 29.1992V30.9992C79.3518 31.7844 79.5991 32.447 80.0914 32.9882C80.5859 33.5282 81.2284 33.7993 82.0211 33.7993C82.9491 33.7993 83.6713 33.4505 84.1878 32.7553C84.7055 32.0589 84.9643 31.1409 84.9643 30.0002Z" fill="#212129"/>
<path d="M101.736 31.2443C101.736 32.5178 101.281 33.554 100.37 34.3538C99.3678 35.228 97.9731 35.6645 96.1808 35.6645C94.5261 35.6645 93.1995 35.354 92.1953 34.7318L92.7662 32.7327C93.8478 33.3695 95.0345 33.689 96.3276 33.689C97.2555 33.689 97.9777 33.4842 98.4966 33.077C99.0131 32.6697 99.2708 32.123 99.2708 31.4412C99.2708 30.8337 99.0582 30.3218 98.6318 29.9067C98.2077 29.4916 97.4993 29.1057 96.5102 28.7491C93.8177 27.7715 92.4727 26.3393 92.4727 24.4561C92.4727 23.2253 92.9441 22.2162 93.8882 21.431C94.8288 20.6446 96.0838 20.252 97.653 20.252C99.0524 20.252 100.215 20.4893 101.143 20.963L100.527 22.9182C99.6602 22.4592 98.6803 22.2297 97.5837 22.2297C96.717 22.2297 96.0399 22.4378 95.5545 22.8518C95.1443 23.222 94.9386 23.6731 94.9386 24.2075C94.9386 24.7992 95.1732 25.2886 95.6446 25.6733C96.0549 26.0288 96.8002 26.4136 97.8818 26.8287C99.2049 27.3473 100.177 27.9537 100.802 28.649C101.425 29.342 101.736 30.2093 101.736 31.2443Z" fill="#212129"/>
<path d="M109.88 26.4469H107.164V31.6883C107.164 33.0214 107.643 33.6874 108.602 33.6874C109.042 33.6874 109.407 33.6503 109.696 33.576L109.764 35.3974C109.279 35.574 108.64 35.6629 107.849 35.6629C106.876 35.6629 106.115 35.3738 105.566 34.7967C105.02 34.2184 104.745 33.2487 104.745 31.8863V26.4447H103.127V24.6447H104.745V22.668L107.164 21.957V24.6447H109.88V26.4469Z" fill="#212129"/>
<path d="M122.133 29.9571C122.133 31.6165 121.645 32.9789 120.672 34.0442C119.652 35.1411 118.297 35.6879 116.609 35.6879C114.982 35.6879 113.687 35.1625 112.721 34.1117C111.755 33.061 111.271 31.7346 111.271 30.136C111.271 28.4631 111.768 27.0929 112.766 26.0275C113.761 24.961 115.103 24.4277 116.792 24.4277C118.419 24.4277 119.728 24.9531 120.716 26.005C121.661 27.0254 122.133 28.3427 122.133 29.9571ZM119.576 30.0347C119.576 29.0391 119.358 28.1852 118.915 27.4731C118.399 26.6114 117.661 26.1816 116.704 26.1816C115.713 26.1816 114.961 26.6125 114.445 27.4731C114.002 28.1864 113.784 29.0537 113.784 30.0797C113.784 31.0754 114.002 31.9292 114.445 32.6402C114.977 33.502 115.722 33.9317 116.682 33.9317C117.622 33.9317 118.361 33.493 118.894 32.6177C119.348 31.8921 119.576 31.0292 119.576 30.0347Z" fill="#212129"/>
<path d="M130.14 26.7568C129.896 26.7129 129.636 26.6904 129.363 26.6904C128.496 26.6904 127.826 27.0088 127.355 27.6467C126.945 28.2092 126.739 28.9202 126.739 29.7785V35.4429H124.276L124.299 28.0472C124.299 26.8029 124.268 25.67 124.207 24.6485H126.353L126.443 26.714H126.511C126.771 26.0042 127.181 25.4327 127.743 25.004C128.292 24.6182 128.885 24.4258 129.524 24.4258C129.751 24.4258 129.957 24.4415 130.14 24.4697V26.7568Z" fill="#212129"/>
<path d="M141.159 29.5351C141.159 29.9649 141.13 30.3271 141.069 30.623H133.678C133.707 31.6895 134.064 32.5051 134.751 33.0676C135.373 33.5705 136.179 33.8225 137.168 33.8225C138.262 33.8225 139.261 33.6526 140.159 33.3117L140.544 34.9767C139.495 35.4222 138.256 35.6439 136.827 35.6439C135.108 35.6439 133.758 35.1511 132.776 34.1667C131.796 33.1824 131.305 31.8605 131.305 30.2022C131.305 28.5744 131.761 27.2187 132.675 26.1376C133.632 24.9834 134.925 24.4062 136.552 24.4062C138.15 24.4062 139.36 24.9834 140.182 26.1376C140.832 27.0545 141.159 28.1885 141.159 29.5351ZM138.81 28.913C138.826 28.202 138.666 27.5877 138.332 27.0691C137.905 26.402 137.25 26.069 136.368 26.069C135.563 26.069 134.908 26.3941 134.407 27.0466C133.997 27.5653 133.753 28.1874 133.678 28.9119H138.81V28.913Z" fill="#212129"/>
<path d="M54.5774 12.8744C54.5774 13.4456 54.3582 13.912 53.9196 14.2737C53.4875 14.6355 52.9314 14.8163 52.2513 14.8163C51.7174 14.8163 51.2376 14.6926 50.8118 14.4451C50.386 14.1912 50.0555 13.8454 49.8203 13.4075L50.5353 12.8839C50.9802 13.5566 51.549 13.893 52.2418 13.893C52.6231 13.893 52.9377 13.7946 53.1856 13.5979C53.4334 13.4011 53.5574 13.1441 53.5574 12.8268C53.5574 12.5349 53.4493 12.3033 53.2332 12.1319C53.0235 11.9606 52.7153 11.8749 52.3085 11.8749H51.5363V11.0086H52.2799C52.585 11.0086 52.8233 10.9325 52.9949 10.7802C53.1665 10.6215 53.2523 10.4121 53.2523 10.1519C53.2523 9.87268 53.1633 9.65374 52.9854 9.49508C52.8074 9.33008 52.5564 9.24758 52.2322 9.24758C51.6412 9.24758 51.1677 9.52999 50.8118 10.0948L50.0968 9.57124C50.548 8.73989 51.2694 8.32422 52.2608 8.32422C52.871 8.32422 53.3572 8.48287 53.7194 8.80018C54.0881 9.11749 54.2724 9.54268 54.2724 10.0758C54.2724 10.6025 54.0436 11.0277 53.586 11.3513C54.247 11.6686 54.5774 12.1763 54.5774 12.8744Z" fill="#212129"/>
<path d="M59.4293 11.8844V14.7116H58.495V14.1881C58.1455 14.6069 57.6466 14.8163 56.9983 14.8163C56.5089 14.8163 56.1149 14.6926 55.8162 14.4451C55.5175 14.1976 55.3681 13.8708 55.3681 13.4646C55.3681 13.0585 55.5238 12.7348 55.8352 12.4936C56.1467 12.2525 56.5661 12.1319 57.0936 12.1319H58.4188V11.8273C58.4188 11.5036 58.3298 11.2561 58.1518 11.0848C57.9802 10.9134 57.7356 10.8278 57.4178 10.8278C56.9411 10.8278 56.5089 11.0594 56.1212 11.5227L55.5397 10.9325C55.9973 10.2661 56.6551 9.93297 57.5131 9.93297C58.0978 9.93297 58.5618 10.1043 58.905 10.447C59.2545 10.7897 59.4293 11.2688 59.4293 11.8844ZM58.4188 12.941V12.8554H57.2176C56.6646 12.8554 56.3882 13.0458 56.3882 13.4265C56.3882 13.6169 56.4613 13.7692 56.6074 13.8835C56.76 13.9913 56.9602 14.0453 57.208 14.0453C57.5512 14.0453 57.8372 13.9406 58.066 13.7311C58.3012 13.5217 58.4188 13.2584 58.4188 12.941Z" fill="#212129"/>
<path d="M60.832 14.7116V10.0377H64.1305V10.9039H61.8425V14.7116H60.832Z" fill="#212129"/>
<path d="M69.9205 12.3699C69.9205 13.068 69.7012 13.6518 69.2627 14.1214C68.8305 14.5847 68.2839 14.8163 67.6229 14.8163C66.9747 14.8163 66.4535 14.591 66.0595 14.1405V16.4251H65.0585V10.0377H65.9927V10.6945C66.3486 10.1868 66.892 9.93297 67.6229 9.93297C68.2839 9.93297 68.8305 10.1678 69.2627 10.6374C69.7012 11.1007 69.9205 11.6782 69.9205 12.3699ZM68.4809 13.4741C68.7542 13.1885 68.8909 12.8236 68.8909 12.3794C68.8909 11.9352 68.7542 11.5703 68.4809 11.2847C68.2076 10.9928 67.8676 10.8468 67.4609 10.8468C67.0668 10.8468 66.7331 10.9801 66.4599 11.2466C66.1866 11.5132 66.0499 11.8876 66.0499 12.3699C66.0499 12.8585 66.1866 13.2361 66.4599 13.5027C66.7331 13.7692 67.0668 13.9025 67.4609 13.9025C67.8676 13.9025 68.2076 13.7597 68.4809 13.4741Z" fill="#212129"/>
<path d="M74.1282 10.0377H75.196L72.9175 15.2447C72.7205 15.6889 72.4853 16.0126 72.212 16.2157C71.9387 16.4251 71.6019 16.5298 71.2015 16.5298C70.9346 16.5298 70.6772 16.4981 70.4293 16.4346V15.5874C70.6899 15.6128 70.8742 15.6255 70.9822 15.6255C71.4652 15.6255 71.8053 15.397 72.0023 14.9401L72.193 14.5022L70.3244 10.0377H71.4017L72.7459 13.436L74.1282 10.0377Z" fill="#212129"/>
<path d="M79.4939 13.3504C79.4939 13.8136 79.3286 14.1754 78.9981 14.4356C78.674 14.6894 78.2259 14.8163 77.6539 14.8163C76.8277 14.8163 76.1921 14.5212 75.7473 13.931L76.3574 13.3313C76.6879 13.7311 77.1042 13.931 77.6063 13.931C77.8859 13.931 78.1052 13.8739 78.2641 13.7597C78.4229 13.6391 78.5024 13.4805 78.5024 13.2837C78.5024 13.0934 78.4261 12.9442 78.2736 12.8363C78.1274 12.7284 77.9209 12.6745 77.6539 12.6745H77.1105V11.8749H77.6253C77.8414 11.8749 78.0067 11.8273 78.1211 11.7321C78.2355 11.6369 78.2927 11.5068 78.2927 11.3418C78.2927 11.1832 78.2291 11.0562 78.102 10.961C77.9812 10.8659 77.8096 10.8183 77.5872 10.8183C77.1359 10.8183 76.7546 10.9928 76.4432 11.3418L75.8331 10.7421C76.2589 10.2027 76.8595 9.93297 77.6349 9.93297C78.1497 9.93297 78.5501 10.0504 78.8361 10.2852C79.1284 10.5136 79.2746 10.8373 79.2746 11.2561C79.2746 11.6877 79.1062 12.0177 78.7693 12.2461C79.2523 12.4809 79.4939 12.849 79.4939 13.3504Z" fill="#212129"/>
<path d="M84.418 9.93297H84.7612V14.7116H83.7506V11.8083L81.0241 14.8163H80.6714V10.0377H81.6819V12.9601L84.418 9.93297Z" fill="#212129"/>
<path d="M87.1636 14.7116V10.9039H85.6574V10.0377H89.6709V10.9039H88.1646V14.7116H87.1636Z" fill="#212129"/>
<path d="M94.7627 12.7031H91.2735C91.337 13.0838 91.5055 13.3853 91.7787 13.6074C92.0584 13.8232 92.3984 13.931 92.7988 13.931C93.2945 13.931 93.749 13.747 94.1621 13.3789L94.6387 14.0643C94.1112 14.5657 93.4884 14.8163 92.7702 14.8163C92.0584 14.8163 91.461 14.5847 90.9779 14.1214C90.4949 13.6518 90.2534 13.0711 90.2534 12.3794C90.2407 11.7067 90.4759 11.1292 90.9589 10.6469C91.4419 10.1583 92.0139 9.92028 92.6749 9.93297C93.2914 9.93297 93.8062 10.1392 94.2193 10.5517C94.6324 10.9579 94.8389 11.4656 94.8389 12.0748C94.8389 12.2588 94.8135 12.4683 94.7627 12.7031ZM91.2925 11.9225H93.8379C93.8316 11.5734 93.714 11.2974 93.4852 11.0943C93.2564 10.8849 92.9736 10.7802 92.6367 10.7802C92.3063 10.7802 92.0171 10.8849 91.7692 11.0943C91.5277 11.2974 91.3688 11.5734 91.2925 11.9225Z" fill="#212129"/>
<path d="M102.671 13.2933C102.671 13.7121 102.516 14.0548 102.204 14.3213C101.899 14.5815 101.499 14.7116 101.003 14.7116H98.6674V10.0377H100.727C101.191 10.0377 101.569 10.1551 101.861 10.3899C102.153 10.6247 102.3 10.9325 102.3 11.3133C102.3 11.6877 102.157 11.9796 101.871 12.189C102.404 12.3921 102.671 12.7602 102.671 13.2933ZM99.6493 10.8468V11.9034H100.688C101.133 11.9034 101.356 11.7258 101.356 11.3704C101.356 11.0213 101.133 10.8468 100.688 10.8468H99.6493ZM101.718 13.2742C101.718 13.0902 101.645 12.9442 101.499 12.8363C101.359 12.7284 101.162 12.6745 100.908 12.6745H99.6493V13.912H100.908C101.156 13.912 101.353 13.8549 101.499 13.7407C101.645 13.6201 101.718 13.4646 101.718 13.2742Z" fill="#212129"/>
</svg>
