<svg width="154" height="45" viewBox="0 0 154 45" fill="none" xmlns="http://www.w3.org/2000/svg">
<path d="M148.296 0.901405C150.937 0.901405 153.086 3.02063 153.086 5.625V39.375C153.086 41.9794 150.937 44.0986 148.296 44.0986H5.7037C3.06289 44.0986 0.914018 41.9794 0.914018 39.375V5.625C0.914018 3.02063 3.06289 0.901405 5.7037 0.901405H148.296ZM148.296 0H5.7037C2.56809 0 0 2.53266 0 5.625V39.375C0 42.4673 2.56809 45 5.7037 45H148.296C151.432 45 154 42.4673 154 39.375V5.625C154 2.53266 151.432 0 148.296 0Z" fill="#212129"/>
<path d="M52.2358 12.8744C52.2358 13.4456 52.0191 13.912 51.5856 14.2737C51.1583 14.6355 50.6086 14.8163 49.9363 14.8163C49.4086 14.8163 48.9342 14.6926 48.5133 14.4451C48.0924 14.1912 47.7657 13.8454 47.5332 13.4075L48.24 12.8839C48.6798 13.5566 49.2421 13.893 49.9269 13.893C50.3039 13.893 50.6149 13.7946 50.8599 13.5979C51.1049 13.4011 51.2274 13.1441 51.2274 12.8268C51.2274 12.5349 51.1206 12.3033 50.907 12.1319C50.6997 11.9606 50.395 11.8749 49.9929 11.8749H49.2295V11.0086H49.9646C50.2662 11.0086 50.5018 10.9325 50.6714 10.7802C50.841 10.6215 50.9259 10.4121 50.9259 10.1519C50.9259 9.87268 50.8379 9.65374 50.662 9.49508C50.4861 9.33008 50.2379 9.24758 49.9175 9.24758C49.3332 9.24758 48.8651 9.52999 48.5133 10.0948L47.8065 9.57124C48.2526 8.73989 48.9657 8.32422 49.9458 8.32422C50.5489 8.32422 51.0295 8.48287 51.3876 8.80018C51.752 9.11749 51.9342 9.54268 51.9342 10.0758C51.9342 10.6025 51.7081 11.0277 51.2557 11.3513C51.9091 11.6686 52.2358 12.1763 52.2358 12.8744Z" fill="#212129"/>
<path d="M57.0321 11.8844V14.7116H56.1085V14.1881C55.763 14.6069 55.2698 14.8163 54.6289 14.8163C54.1452 14.8163 53.7556 14.6926 53.4604 14.4451C53.1651 14.1976 53.0174 13.8708 53.0174 13.4646C53.0174 13.0585 53.1713 12.7348 53.4792 12.4936C53.7871 12.2525 54.2017 12.1319 54.7232 12.1319H56.0331V11.8273C56.0331 11.5036 55.9452 11.2561 55.7692 11.0848C55.5996 10.9134 55.3577 10.8278 55.0436 10.8278C54.5724 10.8278 54.1452 11.0594 53.7619 11.5227L53.1871 10.9325C53.6394 10.2661 54.2897 9.93297 55.1378 9.93297C55.7158 9.93297 56.1745 10.1043 56.5137 10.447C56.8593 10.7897 57.0321 11.2688 57.0321 11.8844ZM56.0331 12.941V12.8554H54.8457C54.2991 12.8554 54.0258 13.0458 54.0258 13.4265C54.0258 13.6169 54.098 13.7692 54.2425 13.8835C54.3933 13.9913 54.5912 14.0453 54.8363 14.0453C55.1755 14.0453 55.4583 13.9406 55.6844 13.7311C55.9169 13.5217 56.0331 13.2584 56.0331 12.941Z" fill="#212129"/>
<path d="M58.4187 14.7116V10.0377H61.6794V10.9039H59.4176V14.7116H58.4187Z" fill="#212129"/>
<path d="M67.403 12.3699C67.403 13.068 67.1862 13.6518 66.7527 14.1214C66.3255 14.5847 65.7852 14.8163 65.1318 14.8163C64.4909 14.8163 63.9757 14.591 63.5862 14.1405V16.4251H62.5967V10.0377H63.5202V10.6945C63.8721 10.1868 64.4093 9.93297 65.1318 9.93297C65.7852 9.93297 66.3255 10.1678 66.7527 10.6374C67.1862 11.1007 67.403 11.6782 67.403 12.3699ZM65.9799 13.4741C66.2501 13.1885 66.3852 12.8236 66.3852 12.3794C66.3852 11.9352 66.2501 11.5703 65.9799 11.2847C65.7098 10.9928 65.3736 10.8468 64.9716 10.8468C64.582 10.8468 64.2522 10.9801 63.982 11.2466C63.7119 11.5132 63.5768 11.8876 63.5768 12.3699C63.5768 12.8585 63.7119 13.2361 63.982 13.5027C64.2522 13.7692 64.582 13.9025 64.9716 13.9025C65.3736 13.9025 65.7098 13.7597 65.9799 13.4741Z" fill="#212129"/>
<path d="M71.5625 10.0377H72.618L70.3657 15.2447C70.1709 15.6889 69.9384 16.0126 69.6683 16.2157C69.3981 16.4251 69.0651 16.5298 68.6693 16.5298C68.4054 16.5298 68.151 16.4981 67.906 16.4346V15.5874C68.1636 15.6128 68.3458 15.6255 68.4526 15.6255C68.9301 15.6255 69.2662 15.397 69.4609 14.9401L69.6494 14.5022L67.8023 10.0377H68.8672L70.196 13.436L71.5625 10.0377Z" fill="#212129"/>
<path d="M76.8666 13.3504C76.8666 13.8136 76.7033 14.1754 76.3766 14.4356C76.0562 14.6894 75.6132 14.8163 75.0478 14.8163C74.231 14.8163 73.6028 14.5212 73.163 13.931L73.7661 13.3313C74.0928 13.7311 74.5043 13.931 75.0007 13.931C75.2771 13.931 75.4939 13.8739 75.6509 13.7597C75.808 13.6391 75.8865 13.4805 75.8865 13.2837C75.8865 13.0934 75.8111 12.9442 75.6604 12.8363C75.5159 12.7284 75.3117 12.6745 75.0478 12.6745H74.5106V11.8749H75.0195C75.2331 11.8749 75.3965 11.8273 75.5096 11.7321C75.6227 11.6369 75.6792 11.5068 75.6792 11.3418C75.6792 11.1832 75.6164 11.0562 75.4907 10.961C75.3714 10.8659 75.2017 10.8183 74.9818 10.8183C74.5358 10.8183 74.1588 10.9928 73.8509 11.3418L73.2478 10.7421C73.6687 10.2027 74.2625 9.93297 75.0289 9.93297C75.5378 9.93297 75.9337 10.0504 76.2164 10.2852C76.5054 10.5136 76.6499 10.8373 76.6499 11.2561C76.6499 11.6877 76.4834 12.0177 76.1504 12.2461C76.6279 12.4809 76.8666 12.849 76.8666 13.3504Z" fill="#212129"/>
<path d="M81.7343 9.93297H82.0736V14.7116H81.0746V11.8083L78.3793 14.8163H78.0307V10.0377H79.0296V12.9601L81.7343 9.93297Z" fill="#212129"/>
<path d="M84.4485 14.7116V10.9039H82.9595V10.0377H86.927V10.9039H85.438V14.7116H84.4485Z" fill="#212129"/>
<path d="M91.9605 12.7031H88.5112C88.5741 13.0838 88.7406 13.3853 89.0107 13.6074C89.2872 13.8232 89.6233 13.931 90.0191 13.931C90.5091 13.931 90.9584 13.747 91.3667 13.3789L91.8379 14.0643C91.3165 14.5657 90.7008 14.8163 89.9908 14.8163C89.2872 14.8163 88.6966 14.5847 88.2191 14.1214C87.7416 13.6518 87.5029 13.0711 87.5029 12.3794C87.4903 11.7067 87.7228 11.1292 88.2003 10.6469C88.6777 10.1583 89.2432 9.92028 89.8966 9.93297C90.506 9.93297 91.0149 10.1392 91.4233 10.5517C91.8317 10.9579 92.0358 11.4656 92.0358 12.0748C92.0358 12.2588 92.0107 12.4683 91.9605 12.7031ZM88.5301 11.9225H91.0463C91.04 11.5734 90.9238 11.2974 90.6976 11.0943C90.4715 10.8849 90.1919 10.7802 89.8589 10.7802C89.5322 10.7802 89.2463 10.8849 89.0013 11.0943C88.7626 11.2974 88.6055 11.5734 88.5301 11.9225Z" fill="#212129"/>
<path d="M99.7785 13.2933C99.7785 13.7121 99.6246 14.0548 99.3167 14.3213C99.0152 14.5815 98.6194 14.7116 98.1293 14.7116H95.8204V10.0377H97.856C98.3147 10.0377 98.6885 10.1551 98.9775 10.3899C99.2665 10.6247 99.411 10.9325 99.411 11.3133C99.411 11.6877 99.2696 11.9796 98.9869 12.189C99.5147 12.3921 99.7785 12.7602 99.7785 13.2933ZM96.7911 10.8468V11.9034H97.8183C98.2581 11.9034 98.478 11.7258 98.478 11.3704C98.478 11.0213 98.2581 10.8468 97.8183 10.8468H96.7911ZM98.8361 13.2742C98.8361 13.0902 98.7639 12.9442 98.6194 12.8363C98.4811 12.7284 98.2864 12.6745 98.0351 12.6745H96.7911V13.912H98.0351C98.2801 13.912 98.4749 13.8549 98.6194 13.7407C98.7639 13.6201 98.8361 13.4646 98.8361 13.2742Z" fill="#212129"/>
<path d="M141.603 24.8119L139.228 31.1475H139.157L136.679 24.8119H134.439L138.151 33.6685L136.03 38.5944H138.207L143.93 24.8119H141.603ZM124.821 19.5542H122.747V34.1661H124.821V19.5542ZM117.016 19.5542H112.029V34.1661H114.119V28.6348H117.024C117.61 28.6558 118.194 28.5547 118.742 28.3374C119.29 28.1201 119.791 27.7908 120.217 27.3688C120.643 26.9468 120.984 26.4404 121.221 25.879C121.459 25.3177 121.587 24.7125 121.599 24.0987C121.587 23.4838 121.458 22.8775 121.221 22.3151C120.983 21.7528 120.641 21.2454 120.215 20.8227C119.788 20.3999 119.286 20.07 118.737 19.8523C118.188 19.6345 117.603 19.5332 117.016 19.5542ZM117.072 26.5948H114.119V21.6191H117.079C117.709 21.6191 118.313 21.8812 118.759 22.3478C119.204 22.8144 119.454 23.4472 119.454 24.107C119.454 24.7668 119.204 25.3996 118.759 25.8661C118.313 26.3327 117.709 26.5948 117.079 26.5948H117.072ZM129.935 24.4967C129.175 24.4511 128.419 24.6386 127.76 25.0363C127.1 25.434 126.566 26.0246 126.222 26.7358L128.075 27.5651C128.258 27.2135 128.536 26.9257 128.873 26.7371C129.211 26.5485 129.593 26.4674 129.974 26.5036C130.236 26.4761 130.5 26.5031 130.752 26.583C131.003 26.6628 131.237 26.794 131.44 26.9689C131.643 27.1439 131.811 27.3591 131.935 27.6023C132.058 27.8455 132.134 28.1119 132.159 28.386V28.5353C131.495 28.1592 130.753 27.9626 129.998 27.9631C128.011 27.9631 125.985 29.1075 125.985 31.2802C125.985 33.2373 127.608 34.4978 129.444 34.4978C129.967 34.5326 130.488 34.4183 130.954 34.1671C131.42 33.916 131.811 33.5373 132.088 33.0715H132.167V34.1993H134.193V28.5768C134.193 25.9811 132.341 24.5382 129.951 24.5382L129.935 24.4967ZM129.689 32.5075C129.009 32.5075 128.059 32.1427 128.059 31.2636C128.059 30.1358 129.238 29.7046 130.267 29.7046C130.931 29.686 131.587 29.855 132.167 30.1939C132.091 30.828 131.798 31.4117 131.342 31.8371C130.887 32.2624 130.299 32.5006 129.689 32.5075ZM54.6313 34.4812C52.6615 34.488 50.7685 33.6815 49.3624 32.2364C47.9563 30.7913 47.1504 28.824 47.1191 26.7607C47.1504 24.6974 47.9563 22.73 49.3624 21.2849C50.7685 19.8398 52.6615 19.0333 54.6313 19.0401C55.5699 19.0237 56.5021 19.2038 57.3734 19.5698C58.2447 19.9357 59.0375 20.4802 59.7053 21.1713L58.2726 22.6557C57.3008 21.6582 55.9918 21.1037 54.6313 21.1133C53.21 21.1133 51.8469 21.7048 50.8419 22.7576C49.8369 23.8105 49.2723 25.2385 49.2723 26.7275C49.2723 28.2165 49.8369 29.6445 50.8419 30.6973C51.8469 31.7502 53.21 32.3417 54.6313 32.3417C55.323 32.3714 56.0129 32.2488 56.6565 31.9817C57.3001 31.7145 57.883 31.3089 58.3676 30.7909C59.0118 30.0633 59.4 29.1272 59.4679 28.1373H54.6313V26.0889H61.4389C61.5132 26.524 61.5476 26.9655 61.5418 27.4075C61.6102 29.2432 60.9811 31.0325 59.7924 32.3832C59.1213 33.0934 58.3148 33.6473 57.4254 34.0088C56.5361 34.3704 55.584 34.5313 54.6313 34.4812ZM72.0699 29.5056C72.0959 30.1689 71.9936 30.8309 71.7693 31.4518C71.5449 32.0727 71.203 32.6396 70.7642 33.1186C70.3254 33.5976 69.7987 33.9787 69.2157 34.239C68.6327 34.4993 68.0056 34.6335 67.3718 34.6335C66.7381 34.6335 66.111 34.4993 65.528 34.239C64.945 33.9787 64.4183 33.5976 63.9795 33.1186C63.5407 32.6396 63.1988 32.0727 62.9744 31.4518C62.7501 30.8309 62.6478 30.1689 62.6738 29.5056C62.6478 28.8422 62.7501 28.1802 62.9744 27.5594C63.1988 26.9385 63.5407 26.3715 63.9795 25.8925C64.4183 25.4136 64.945 25.0325 65.528 24.7721C66.111 24.5118 66.7381 24.3776 67.3718 24.3776C68.0056 24.3776 68.6327 24.5118 69.2157 24.7721C69.7987 25.0325 70.3254 25.4136 70.7642 25.8925C71.203 26.3715 71.5449 26.9385 71.7693 27.5594C71.9936 28.1802 72.0959 28.8422 72.0699 29.5056ZM70.0118 29.5056C70.0467 29.1203 70.0044 28.7317 69.8876 28.3646C69.7708 27.9975 69.5821 27.66 69.3336 27.3737C69.085 27.0874 68.7822 26.8587 68.4443 26.7022C68.1065 26.5457 67.7412 26.4649 67.3718 26.4649C67.0025 26.4649 66.6372 26.5457 66.2993 26.7022C65.9615 26.8587 65.6586 27.0874 65.4101 27.3737C65.1616 27.66 64.9729 27.9975 64.8561 28.3646C64.7393 28.7317 64.697 29.1203 64.7319 29.5056C64.697 29.8908 64.7393 30.2794 64.8561 30.6465C64.9729 31.0136 65.1616 31.3512 65.4101 31.6374C65.6586 31.9237 65.9615 32.1524 66.2993 32.3089C66.6372 32.4654 67.0025 32.5462 67.3718 32.5462C67.7412 32.5462 68.1065 32.4654 68.4443 32.3089C68.7822 32.1524 69.085 31.9237 69.3336 31.6374C69.5821 31.3512 69.7708 31.0136 69.8876 30.6465C70.0044 30.2794 70.0467 29.8908 70.0118 29.5056ZM82.598 29.5056C82.598 30.8098 82.1034 32.0606 81.2231 32.9828C80.3428 33.9051 79.1488 34.4232 77.9039 34.4232C76.6589 34.4232 75.465 33.9051 74.5847 32.9828C73.7043 32.0606 73.2098 30.8098 73.2098 29.5056C73.2098 28.2013 73.7043 26.9505 74.5847 26.0283C75.465 25.1061 76.6589 24.588 77.9039 24.588C79.1488 24.588 80.3428 25.1061 81.2231 26.0283C82.1034 26.9505 82.598 28.2013 82.598 29.5056ZM80.5478 29.5056C80.5827 29.1203 80.5404 28.7317 80.4236 28.3646C80.3068 27.9975 80.1181 27.66 79.8696 27.3737C79.621 27.0874 79.3182 26.8587 78.9803 26.7022C78.6425 26.5457 78.2772 26.4649 77.9078 26.4649C77.5385 26.4649 77.1732 26.5457 76.8353 26.7022C76.4975 26.8587 76.1946 27.0874 75.9461 27.3737C75.6976 27.66 75.5089 27.9975 75.3921 28.3646C75.2753 28.7317 75.233 29.1203 75.2679 29.5056C75.233 29.8908 75.2753 30.2794 75.3921 30.6465C75.5089 31.0136 75.6976 31.3512 75.9461 31.6374C76.1946 31.9237 76.4975 32.1524 76.8353 32.3089C77.1732 32.4654 77.5385 32.5462 77.9078 32.5462C78.2772 32.5462 78.6425 32.4654 78.9803 32.3089C79.3182 32.1524 79.621 31.9237 79.8696 31.6374C80.1181 31.3512 80.3068 31.0136 80.4236 30.6465C80.5404 30.2794 80.5827 29.8908 80.5478 29.5056ZM92.8728 24.8367V33.7681C92.8728 37.4335 90.7909 38.9427 88.337 38.9427C87.4375 38.9507 86.5559 38.6792 85.8036 38.1626C85.0512 37.646 84.4619 36.9075 84.1099 36.0403L85.9068 35.211C86.0932 35.7173 86.4178 36.1548 86.8402 36.469C87.2625 36.7831 87.7639 36.9599 88.2816 36.9774C89.8647 36.9774 90.8305 35.9573 90.8305 34.0583V33.3451H90.7513C90.4408 33.7081 90.0598 33.9972 89.6338 34.1932C89.2078 34.3892 88.7468 34.4874 88.2816 34.4812C87.0219 34.4812 85.8139 33.957 84.9232 33.0239C84.0325 32.0908 83.5321 30.8252 83.5321 29.5056C83.5321 28.1859 84.0325 26.9204 84.9232 25.9872C85.8139 25.0541 87.0219 24.5299 88.2816 24.5299C88.7498 24.5191 89.215 24.6126 89.6462 24.8041C90.0774 24.9957 90.4649 25.281 90.783 25.6411H90.8621V24.8119H92.8728V24.8367ZM91.0284 29.5304C91.0574 29.1551 91.0142 28.7775 90.9013 28.42C90.7885 28.0626 90.6082 27.7325 90.3712 27.4494C90.1342 27.1663 89.8453 26.936 89.5217 26.7721C89.1981 26.6082 88.8464 26.514 88.4874 26.4953C88.1214 26.508 87.7615 26.597 87.4287 26.7572C87.0959 26.9173 86.797 27.1453 86.5493 27.4279C86.3017 27.7106 86.1103 28.0421 85.9864 28.4031C85.8625 28.7641 85.8085 29.1473 85.8277 29.5304C85.8107 29.911 85.8664 30.2912 85.9916 30.6489C86.1167 31.0065 86.3088 31.3344 86.5566 31.6132C86.8043 31.8921 87.1027 32.1163 87.4343 32.2727C87.7658 32.4291 88.1239 32.5146 88.4874 32.5241C88.8442 32.5097 89.1946 32.4198 89.5175 32.26C89.8404 32.1002 90.1291 31.8737 90.3664 31.5942C90.6037 31.3146 90.7846 30.9877 90.8984 30.6331C91.0121 30.2784 91.0564 29.9034 91.0284 29.5304ZM96.5378 19.5708V34.1744H94.448V19.5708H96.5378ZM104.77 31.1475L106.401 32.2754C105.966 32.956 105.377 33.5135 104.686 33.8983C103.996 34.2831 103.225 34.4834 102.443 34.4812C101.821 34.4906 101.203 34.3675 100.628 34.1196C100.053 33.8717 99.5311 33.504 99.0952 33.0389C98.6593 32.5737 98.3181 32.0207 98.0921 31.4134C97.8662 30.8061 97.7602 30.157 97.7806 29.5056C97.6879 28.3856 97.9919 27.269 98.6346 26.3687C99.2773 25.4685 100.214 24.8474 101.265 24.624C102.317 24.4006 103.41 24.5904 104.337 25.1573C105.264 25.7241 105.959 26.6284 106.29 27.6977L106.504 28.2699L100.171 31.0148C100.368 31.4795 100.694 31.8716 101.106 32.1406C101.518 32.4096 101.998 32.5432 102.483 32.5241C102.944 32.5166 103.396 32.3862 103.796 32.1455C104.196 31.9047 104.532 31.5613 104.77 31.1475ZM99.7754 29.3563L104.034 27.5153C103.869 27.1773 103.613 26.8974 103.298 26.7102C102.983 26.523 102.622 26.4368 102.261 26.4621C101.915 26.478 101.576 26.5658 101.263 26.7205C100.95 26.8751 100.67 27.0936 100.439 27.363C100.207 27.6324 100.029 27.9475 99.9156 28.2897C99.8017 28.632 99.754 28.9945 99.7754 29.3563Z" fill="#212129"/>
<path fill-rule="evenodd" clip-rule="evenodd" d="M23.3047 22.7668L29.2173 28.5821L34.3465 25.5816C34.8398 25.3171 35.253 24.9192 35.5412 24.4312C35.8295 23.9433 35.9819 23.3838 35.9819 22.8134C35.9819 22.243 35.8295 21.6835 35.5412 21.1955C35.253 20.7075 34.8398 20.3097 34.3465 20.0451H34.3638L29.1841 17.0059L23.3047 22.7668Z" fill="#212129"/>
<path fill-rule="evenodd" clip-rule="evenodd" d="M22.7913 22.2605L11.2598 10.9187C11.4527 10.2744 11.8393 9.70807 12.3653 9.30122C12.9098 8.8801 13.5737 8.65292 14.2559 8.6543C14.8208 8.65586 15.3751 8.81075 15.8625 9.10321L28.3231 16.4173L22.7913 22.2605Z" fill="#212129"/>
<path fill-rule="evenodd" clip-rule="evenodd" d="M11.2637 34.564L22.7944 23.2656L28.3021 29.0971L15.8186 36.3811C15.4062 36.6262 14.9445 36.7715 14.469 36.8058C13.9934 36.8402 13.5164 36.7627 13.0745 36.5792C12.6326 36.3957 12.2376 36.1112 11.9194 35.7473C11.6204 35.4053 11.3969 35.0017 11.2637 34.564Z" fill="#212129"/>
<path fill-rule="evenodd" clip-rule="evenodd" d="M11.1367 11.8055C11.1356 11.5416 11.1677 11.2787 11.2327 11.0234L22.3179 22.7603L11.2363 34.4654C11.1709 34.2056 11.1375 33.9383 11.1367 33.6699V11.8055Z" fill="#212129"/>
</svg>
