<svg width="148" height="28" viewBox="0 0 148 28" fill="none" xmlns="http://www.w3.org/2000/svg">
<path d="M24.6112 27.542H20.7865C20.4262 27.542 20.1214 27.2309 20.1214 26.8633V17.5299C20.1214 16.4552 19.8719 15.5784 19.3453 14.9845C18.8187 14.3622 18.0427 14.0511 17.045 14.0511C16.0195 14.0511 15.2435 14.3905 14.6891 15.041C14.1348 15.7481 13.8854 16.5683 13.8854 17.5299V26.8633C13.8854 27.2309 13.5805 27.542 13.2202 27.542H9.39551C9.03521 27.542 8.73035 27.2309 8.73035 26.8633V10.2047C8.73035 9.83699 9.03521 9.52588 9.39551 9.52588H13.1925C13.5528 9.52588 13.8577 9.83699 13.8577 10.2047V11.8734H13.8854C14.5229 10.742 15.4375 9.97841 16.6569 9.58245C17.5993 9.29962 18.3476 9.1582 18.9019 9.1582C21.0082 9.1582 22.588 9.83699 23.6689 11.2228C24.7498 12.6087 25.2764 14.3057 25.2764 16.342V26.8633C25.2764 27.2592 24.9715 27.542 24.6112 27.542Z" fill="#212129"/>
<path d="M126.936 27.542H123.112C122.751 27.542 122.446 27.2309 122.446 26.8633V17.5299C122.446 16.4552 122.197 15.5784 121.67 14.9845C121.144 14.3622 120.368 14.0511 119.37 14.0511C118.345 14.0511 117.569 14.3905 117.014 15.041C116.46 15.7481 116.21 16.5683 116.21 17.5299V26.8633C116.21 27.2309 115.906 27.542 115.545 27.542H111.693C111.333 27.542 111.028 27.2309 111.028 26.8633V10.2047C111.028 9.83699 111.333 9.52588 111.693 9.52588H115.49C115.85 9.52588 116.155 9.83699 116.155 10.2047V11.8734H116.183C116.82 10.742 117.735 9.97841 118.954 9.58245C119.897 9.29962 120.645 9.1582 121.199 9.1582C123.306 9.1582 124.885 9.83699 125.966 11.2228C127.047 12.6087 127.574 14.3057 127.574 16.342V26.8633C127.574 27.2592 127.297 27.542 126.936 27.542Z" fill="#212129"/>
<path d="M37.8869 27.5416H33.5633C33.2861 27.5416 33.0367 27.3719 32.9535 27.1173L26.3295 10.4587C26.1633 10.0062 26.4681 9.52539 26.9393 9.52539H30.958C31.2352 9.52539 31.4846 9.69509 31.5677 9.97792L35.7528 21.5739L39.9655 9.97792C40.0487 9.72337 40.2981 9.52539 40.5752 9.52539H44.594C45.0651 9.52539 45.3977 10.0062 45.2037 10.4587L38.5243 27.1173C38.4134 27.3719 38.164 27.5416 37.8869 27.5416Z" fill="#212129"/>
<path d="M72.5587 27.9369C70.5632 27.9369 68.9557 27.4844 67.7363 26.5511C67.1543 26.1268 66.6831 25.6743 66.3228 25.1652C65.7962 24.543 65.3805 23.4682 65.1865 22.648C65.0756 22.2238 65.4082 21.7995 65.8239 21.7995H69.2329C69.4823 21.7995 69.7318 21.941 69.8426 22.1955C69.9535 22.4783 70.1752 22.8177 70.5078 23.1005C71.0344 23.6096 71.6996 23.8642 72.5033 23.8642C73.1408 23.8642 73.6396 23.6945 73.9999 23.3834C74.3602 23.0723 74.5543 22.7046 74.5543 22.3086C74.5543 21.545 73.9722 21.0076 72.8359 20.7531L70.591 20.244C67.2097 19.4803 65.519 17.7268 65.519 14.9834C65.519 13.343 66.1565 11.9571 67.4314 10.8258C68.734 9.66621 70.3415 9.07227 72.2539 9.07227C74.8314 9.07227 76.7715 9.89247 78.0741 11.5329C78.6284 12.1834 79.0164 13.0036 79.2381 13.8803C79.349 14.3046 79.0164 14.7288 78.6007 14.7288H75.2194C74.97 14.7288 74.7483 14.5874 74.6374 14.3612C74.5265 14.1349 74.3325 13.9086 74.0277 13.6541C73.5842 13.2864 73.0022 13.0884 72.3093 13.0884C71.7273 13.0884 71.2838 13.2298 70.8958 13.5127C70.5355 13.7955 70.3415 14.1632 70.3415 14.5874C70.3415 15.2662 70.8127 15.6904 71.7273 15.8884L74.1662 16.4258C75.8846 16.7652 77.2149 17.4157 78.1572 18.3773C79.0719 19.3389 79.543 20.5268 79.543 21.8844C79.543 23.4682 78.961 24.8258 77.8247 25.9854C76.5775 27.3147 74.8037 27.9369 72.5587 27.9369Z" fill="#212129"/>
<path d="M103.739 7.91376L106.261 9.61073C107.286 10.3178 107.924 11.4774 107.924 12.7501V26.8633C107.924 27.2309 107.619 27.542 107.258 27.542H103.378C103.018 27.542 102.713 27.2309 102.713 26.8633V8.45113C102.741 7.94204 103.295 7.63093 103.739 7.91376Z" fill="#212129"/>
<path d="M86.749 14.1074H90.4629C90.8232 14.1074 91.1281 13.7963 91.1281 13.4286V10.2044C91.1281 9.83673 90.8232 9.52562 90.4629 9.52562H86.749V7.71551C86.749 6.44279 86.167 5.22662 85.1416 4.46299L83.146 2.93572C82.5363 2.48319 81.7048 2.90743 81.7048 3.67107L81.6217 19.566C81.6217 23.9781 85.1138 27.5418 89.4374 27.5418H90.4629C90.8232 27.5418 91.1281 27.2307 91.1281 26.863V23.6387C91.1281 23.2711 90.8232 22.96 90.4629 22.96C88.412 22.96 86.749 21.263 86.749 19.1701V14.1074Z" fill="#212129"/>
<path d="M61.0292 11.5905C59.394 9.92176 57.2876 9.10156 54.6824 9.10156C52.964 9.10156 51.4397 9.5258 50.0262 10.346C48.5573 11.2228 47.4209 12.3541 46.5895 13.7965C45.7303 15.2389 45.3146 16.8228 45.3146 18.548C45.3146 20.3016 45.758 21.942 46.6172 23.441C47.5041 24.9117 48.6958 26.0147 50.137 26.7783C51.6337 27.5702 53.2412 27.9662 55.015 27.9662C56.7887 27.9662 58.4239 27.4854 59.8929 26.5521C60.946 25.8733 61.4726 25.3076 61.8052 24.7985C61.9992 24.4591 61.9161 24.0349 61.5835 23.8369L58.7565 22.1399C58.4794 21.9702 58.1468 22.0268 57.9528 22.2531C57.7311 22.4793 57.4816 22.7056 57.149 22.8753C56.4007 23.3278 55.6524 23.5541 54.9041 23.5541C53.7955 23.5541 52.8254 23.2147 52.0217 22.5642C51.1902 21.8854 50.7191 21.0369 50.5528 19.9904H57.2045H62.3595C62.9415 19.9904 63.4404 19.5096 63.4681 18.9157C63.4681 18.6612 63.4681 18.4066 63.4681 18.1238C63.4681 15.4369 62.6644 13.2591 61.0292 11.5905ZM50.6914 16.4834C50.7745 15.7763 51.1902 15.0692 51.9108 14.3905C52.6037 13.7117 53.4629 13.3723 54.5438 13.3723C55.791 13.3723 56.7333 13.7399 57.3985 14.447C57.9528 15.0692 58.2576 15.748 58.3131 16.4834H50.6914Z" fill="#212129"/>
<path d="M1.4689 0.135153L3.43669 1.52101C4.7116 2.42606 5.45991 3.89677 5.45991 5.48061V26.8624C5.45991 27.2301 5.15505 27.5412 4.79475 27.5412H0.94231C0.582011 27.5412 0.277143 27.2301 0.277143 26.8624V0.785658C0.249428 0.163436 0.970028 -0.204241 1.4689 0.135153Z" fill="#212129"/>
<path d="M95.2854 0.673263L97.2532 2.05912C98.5281 2.96417 99.2764 4.43488 99.2764 6.01872V26.8632C99.2764 27.2308 98.9715 27.5419 98.6112 27.5419H94.7588C94.3985 27.5419 94.0936 27.2308 94.0936 26.8632V1.32377C94.0936 0.673263 94.7865 0.305586 95.2854 0.673263Z" fill="#212129"/>
<path d="M131.925 0.673263L133.893 2.05912C135.168 2.96417 135.916 4.43488 135.916 6.01872V26.8632C135.916 27.2308 135.611 27.5419 135.251 27.5419H131.371C131.01 27.5419 130.706 27.2308 130.706 26.8632V1.32377C130.706 0.673263 131.398 0.305586 131.925 0.673263Z" fill="#212129"/>
<path d="M142.706 17.4165L147.723 10.7983C148.055 10.3458 147.751 9.69531 147.196 9.69531H142.956C142.762 9.69531 142.568 9.78016 142.429 9.94986L137.995 15.8044C136.748 17.4448 136.748 19.764 137.995 21.4044L142.429 27.2589C142.568 27.4286 142.762 27.5135 142.956 27.5135H147.196C147.751 27.5135 148.055 26.863 147.723 26.4105L142.706 19.8206C142.18 19.1418 142.18 18.1236 142.706 17.4165Z" fill="#212129"/>
<path d="M106.566 0.566406H104.099C103.351 0.566406 102.741 1.18863 102.741 1.95226V4.46944C102.741 5.23307 103.351 5.85529 104.099 5.85529H106.566C107.314 5.85529 107.924 5.23307 107.924 4.46944V1.95226C107.924 1.18863 107.314 0.566406 106.566 0.566406Z" fill="#212129"/>
</svg>
